<?xml version="1.0" encoding="UTF-8"?>
<svg version="1.1" xmlns="http://www.w3.org/2000/svg" width="127" height="127">
<path d="M0 0 C0.99741211 0.00572021 1.99482422 0.01144043 3.02246094 0.01733398 C21.3782168 0.45571124 36.13216204 8.27776726 48.8125 21.5 C58.94567592 33.86524001 64.42068394 47.67627707 64.3125 63.6875 C64.30677979 64.68491211 64.30105957 65.68232422 64.29516602 66.70996094 C63.85678876 85.0657168 56.03473274 99.81966204 42.8125 112.5 C30.44725999 122.63317592 16.63622293 128.10818394 0.625 128 C-0.37241211 127.99427979 -1.36982422 127.98855957 -2.39746094 127.98266602 C-20.7532168 127.54428876 -35.50716204 119.72223274 -48.1875 106.5 C-58.32067592 94.13475999 -63.79568394 80.32372293 -63.6875 64.3125 C-63.68177979 63.31508789 -63.67605957 62.31767578 -63.67016602 61.29003906 C-63.23178876 42.9342832 -55.40973274 28.18033796 -42.1875 15.5 C-29.82225999 5.36682408 -16.01122293 -0.10818394 0 0 Z " fill="#FAFBFA" transform="translate(63.1875,-0.5)"/>
<path d="M0 0 C0.79664063 0.47050781 1.59328125 0.94101562 2.4140625 1.42578125 C3.47367188 2.04839844 4.53328125 2.67101563 5.625 3.3125 C6.66914062 3.92738281 7.71328125 4.54226562 8.7890625 5.17578125 C15.42306053 8.96715955 15.42306053 8.96715955 22.75 10.8125 C25.08984375 11.27734375 25.08984375 11.27734375 27 12 C28.3125 14.875 28.3125 14.875 29 18 C31.32350747 20.7732186 32.54410205 21.84803402 36 23 C36.2475 22.443125 36.495 21.88625 36.75 21.3125 C38.22924818 18.57589087 39.93467439 16.32349131 42 14 C42.66 14 43.32 14 44 14 C44 14.66 44 15.32 44 16 C56.21 16 68.42 16 81 16 C81 24 81 24 79 31 C72.4 31 65.8 31 59 31 C59.33 27.04 59.66 23.08 60 19 C59.34 19 58.68 19 58 19 C58.04125 20.19625 58.0825 21.3925 58.125 22.625 C58.26851375 26.78689876 57.45729794 28.62810618 56 33 C63.26 33 70.52 33 78 33 C76.21506794 40.13972825 71.52984362 46.19776738 66 51 C64.66666667 51.66666667 63.33333333 52.33333333 62 53 C61.67 53.99 61.34 54.98 61 56 C54.74161943 60.12890562 46.50159344 61.80359378 39.37890625 63.94921875 C36.17162487 64.84692252 36.17162487 64.84692252 34 66 C34 65.34 34 64.68 34 64 C33.10861328 63.96132812 33.10861328 63.96132812 32.19921875 63.921875 C22.99416604 63.29198026 14.31557592 60.77545468 7 55 C6.67 54.34 6.34 53.68 6 53 C5.11828125 52.60167969 5.11828125 52.60167969 4.21875 52.1953125 C-2.5768988 48.53427635 -8.54979792 39.29645811 -11 32 C-12.30901223 26.6504529 -13.11921511 21.51369901 -13 16 C-11.02 15.67 -9.04 15.34 -7 15 C-7.33 13.02 -7.66 11.04 -8 9 C-7.34 8.67 -6.68 8.34 -6 8 C-7.2375 7.319375 -7.2375 7.319375 -8.5 6.625 C-9.325 6.08875 -10.15 5.5525 -11 5 C-11 4.34 -11 3.68 -11 3 C-5.555 2.505 -5.555 2.505 0 2 C0 1.34 0 0.68 0 0 Z " fill="#DBDFEB" transform="translate(30,47)"/>
<path d="M0 0 C3.7400419 2.49336127 3.85526855 3.94019583 5.0625 8.1875 C5.39894531 9.35023437 5.73539063 10.51296875 6.08203125 11.7109375 C6.38496094 12.79632813 6.68789062 13.88171875 7 15 C7.41638676 16.4375811 7.83297747 17.8751032 8.25 19.3125 C8.4975 20.199375 8.745 21.08625 9 22 C9.99 21.67 10.98 21.34 12 21 C11.73343428 18.06556598 11.73343428 18.06556598 11 15 C10.01 14.34 9.02 13.68 8 13 C7.60740893 8.76001646 7.67509722 5.63266059 10 2 C10.99 2 11.98 2 13 2 C13 5.3 13 8.6 13 12 C13.66 12 14.32 12 15 12 C15.33 11.01 15.66 10.02 16 9 C16.33 8.34 16.66 7.68 17 7 C19.32156597 6.59270772 21.6568787 6.25561323 24 6 C23.152874 11.36513131 22.08318169 16.6787385 21 22 C21.99 20.02 22.98 18.04 24 16 C25.32 16 26.64 16 28 16 C28 15.34 28 14.68 28 14 C29.65 14 31.3 14 33 14 C31.125 20.75 31.125 20.75 30 23 C33.3 23 36.6 23 40 23 C35.61039371 31.77921257 26.04526667 36.86952501 17 40 C16.01 40 15.02 40 14 40 C14 40.66 14 41.32 14 42 C10.535 42.495 10.535 42.495 7 43 C6.67 43.99 6.34 44.98 6 46 C4.68 45.34 3.36 44.68 2 44 C2 44.66 2 45.32 2 46 C2.99 46.495 2.99 46.495 4 47 C3.49396008 49.16874252 3.00016187 50.99967627 2 53 C-1.81731623 52.45466911 -3.55691189 50.93170573 -6 48 C-6.24621094 47.16726562 -6.49242187 46.33453125 -6.74609375 45.4765625 C-7.7903011 42.75164557 -7.7903011 42.75164557 -10.65234375 41.8828125 C-11.73644531 41.63273437 -12.82054688 41.38265625 -13.9375 41.125 C-23.91062116 38.38404286 -32.95464137 32.65097685 -40 25 C-40 24.34 -40 23.68 -40 23 C-35.25930077 22.76874638 -31.53415942 23.6920694 -27 25 C-26.34 24.67 -25.68 24.34 -25 24 C-25.99 23.67 -26.98 23.34 -28 23 C-30.03960471 20.0974856 -31.35341074 17.49158202 -32 14 C-29.625 13.8125 -29.625 13.8125 -27 14 C-26.01 15.485 -26.01 15.485 -25 17 C-24.01 17.33 -23.02 17.66 -22 18 C-22.165 17.505 -22.33 17.01 -22.5 16.5 C-23.20688818 12.96555911 -23.06005155 9.60309299 -23 6 C-16.94893877 8.42042449 -13.63450302 14.63955323 -10.8828125 20.296875 C-9.52795126 23.72919015 -9 26.27983242 -9 30 C-11.31 30 -13.62 30 -16 30 C-13.62370911 34.14670039 -13.62370911 34.14670039 -10 37 C-9.67 36.34 -9.34 35.68 -9 35 C-7.68 35 -6.36 35 -5 35 C-5.33 34.01 -5.66 33.02 -6 32 C-6.68125997 21.21152237 -6.63774767 11.00331706 -2 1 C-1.34 0.67 -0.68 0.34 0 0 Z " fill="#F8F7EB" transform="translate(64,17)"/>
<path d="M0 0 C0.79664063 0.47050781 1.59328125 0.94101562 2.4140625 1.42578125 C3.47367188 2.04839844 4.53328125 2.67101563 5.625 3.3125 C6.66914062 3.92738281 7.71328125 4.54226562 8.7890625 5.17578125 C13.40448407 7.79792465 17.63609238 10.15559395 22.875 11.1875 C23.65617187 11.34605469 24.43734375 11.50460938 25.2421875 11.66796875 C25.82226562 11.77753906 26.40234375 11.88710938 27 12 C27.495 14.475 27.495 14.475 28 17 C27.34 17 26.68 17 26 17 C26.33 25.91 26.66 34.82 27 44 C24 44 21 44 18 44 C15.61428127 45.90009069 15.61428127 45.90009069 13.375 48.375 C12.21097656 49.59316406 12.21097656 49.59316406 11.0234375 50.8359375 C10.35570313 51.55007812 9.68796875 52.26421875 9 53 C8.34 53.66 7.68 54.32 7 55 C6.67 54.34 6.34 53.68 6 53 C5.11828125 52.60167969 5.11828125 52.60167969 4.21875 52.1953125 C-2.5768988 48.53427635 -8.54979792 39.29645811 -11 32 C-12.30901223 26.6504529 -13.11921511 21.51369901 -13 16 C-11.02 15.67 -9.04 15.34 -7 15 C-7.33 13.02 -7.66 11.04 -8 9 C-7.34 8.67 -6.68 8.34 -6 8 C-7.2375 7.319375 -7.2375 7.319375 -8.5 6.625 C-9.325 6.08875 -10.15 5.5525 -11 5 C-11 4.34 -11 3.68 -11 3 C-5.555 2.505 -5.555 2.505 0 2 C0 1.34 0 0.68 0 0 Z " fill="#FCFCF9" transform="translate(30,47)"/>
<path d="M0 0 C12.21 0 24.42 0 37 0 C37 8.58 37 17.16 37 26 C29.97790794 21.31860529 24.88667225 16.49002511 23 8 C22.875 5.125 22.875 5.125 23 3 C22.34 3 21.68 3 21 3 C21.66 6.96 22.32 10.92 23 15 C16.4 15 9.8 15 3 15 C1 10 1 10 0 0 Z " fill="#34429B" transform="translate(17,63)"/>
<path d="M0 0 C11.88 0 23.76 0 36 0 C36 8 36 8 34 15 C27.4 15 20.8 15 14 15 C14.33 11.04 14.66 7.08 15 3 C14.34 3 13.68 3 13 3 C13.12375 4.11375 13.2475 5.2275 13.375 6.375 C13.41584524 12.0729111 10.45782297 16.62845178 7 21 C6.34 21 5.68 21 5 21 C5 21.66 5 22.32 5 23 C3.35 23.66 1.7 24.32 0 25 C0 16.75 0 8.5 0 0 Z " fill="#3C4899" transform="translate(75,63)"/>
<path d="M0 0 C4.28066766 2.85377844 4.89725479 6.09982458 6 11 C6.39436592 14.65838759 6.42092598 18.26087045 6.375 21.9375 C6.38660156 22.86240234 6.39820312 23.78730469 6.41015625 24.74023438 C6.38268418 31.27400905 5.19671743 36.85602989 3 43 C2.34 43 1.68 43 1 43 C1 43.66 1 44.32 1 45 C0.34 45 -0.32 45 -1 45 C-7.79477273 31.26485226 -7.92845068 17.72107034 -3.0703125 3.30859375 C-2 1 -2 1 0 0 Z " fill="#D9A42D" transform="translate(64,17)"/>
<path d="M0 0 C0.33 0 0.66 0 1 0 C1.20086443 3.71599191 1.1519437 4.77208445 -1 8 C1.64 8 4.28 8 7 8 C6.67 9.98 6.34 11.96 6 14 C5.34 14 4.68 14 4 14 C4 14.66 4 15.32 4 16 C3.34 16 2.68 16 2 16 C1.67 17.32 1.34 18.64 1 20 C3.31 20 5.62 20 8 20 C8 20.33 8 20.66 8 21 C-4.21 21 -16.42 21 -29 21 C-29 20.34 -29 19.68 -29 19 C-29.66 19 -30.32 19 -31 19 C-31.28875 19.639375 -31.5775 20.27875 -31.875 20.9375 C-33 23 -33 23 -35 24 C-35 23.34 -35 22.68 -35 22 C-35.99 21.67 -36.98 21.34 -38 21 C-37.67 20.34 -37.34 19.68 -37 19 C-35.68 19.33 -34.36 19.66 -33 20 C-32.67 19.34 -32.34 18.68 -32 18 C-29.67843403 17.59270772 -27.3431213 17.25561323 -25 17 C-25 16.34 -25 15.68 -25 15 C-24.26136719 14.731875 -23.52273437 14.46375 -22.76171875 14.1875 C-14.18421863 10.87420898 -6.54864796 6.54864796 0 0 Z " fill="#F7F7F3" transform="translate(103,42)"/>
<path d="M0 0 C2.578125 2.1796875 2.578125 2.1796875 5.25 4.875 C6.14203125 5.75929688 7.0340625 6.64359375 7.953125 7.5546875 C10 10 10 10 10 13 C7.01234583 14.36242563 4.01003528 15.68781275 1 17 C-0.0209375 17.46212891 -0.0209375 17.46212891 -1.0625 17.93359375 C-6.20568662 20.10078327 -10.43049743 20.26107043 -16 20 C-16 14.39 -16 8.78 -16 3 C-3.15980231 -1.2800659 -3.15980231 -1.2800659 0 0 Z " fill="#424DA0" transform="translate(81,90)"/>
<path d="M0 0 C0.59167969 0.20496094 1.18335938 0.40992187 1.79296875 0.62109375 C2.58316406 0.89050781 3.37335937 1.15992187 4.1875 1.4375 C5.35345703 1.83775391 5.35345703 1.83775391 6.54296875 2.24609375 C8.98414213 2.99513423 11.49608208 3.49921642 14 4 C14 9.61 14 15.22 14 21 C4.53554017 21.62062032 -2.99758162 19.02310074 -11 14 C-10.52590352 9.68269587 -7.96603297 7.66352539 -4.9375 4.75 C-4.01839844 3.85796875 -3.09929688 2.9659375 -2.15234375 2.046875 C-1.44207031 1.37140625 -0.73179688 0.6959375 0 0 Z " fill="#3D489C" transform="translate(49,89)"/>
<path d="M0 0 C3.582906 -0.14533755 7.16505417 -0.23407931 10.75 -0.3125 C11.76578125 -0.35439453 12.7815625 -0.39628906 13.828125 -0.43945312 C21.31444233 -0.56258334 21.31444233 -0.56258334 24.765625 2.26953125 C26 5 26 5 26.06640625 6.984375 C24.50216523 9.94096242 22.34113553 11.93764177 19.9375 14.25 C19.01839844 15.14203125 18.09929688 16.0340625 17.15234375 16.953125 C16.44207031 17.62859375 15.73179688 18.3040625 15 19 C11.06302854 17.45397468 9.02119116 14.98915039 6.375 11.75 C5.59898438 10.81671875 4.82296875 9.8834375 4.0234375 8.921875 C1.98636875 5.98031626 0.94445264 3.43252681 0 0 Z " fill="#34419A" transform="translate(21,81)"/>
<path d="M0 0 C1.29611206 0.0314209 1.29611206 0.0314209 2.6184082 0.06347656 C3.55620117 0.07636719 4.49399414 0.08925781 5.46020508 0.10253906 C6.43666992 0.13605469 7.41313477 0.16957031 8.41918945 0.20410156 C9.40725586 0.22214844 10.39532227 0.24019531 11.41333008 0.25878906 C13.85375788 0.30594709 16.29223715 0.37174114 18.73168945 0.45410156 C17.98235981 4.86034485 16.64059651 7.45059306 13.98168945 11.07910156 C13.3062207 12.02011719 12.63075195 12.96113281 11.93481445 13.93066406 C9.71211119 16.47652631 7.71065027 17.90212547 4.73168945 19.45410156 C2.86166657 17.71872033 1.01180853 15.96816806 -0.83081055 14.20410156 C-1.36383789 13.71296875 -1.89686523 13.22183594 -2.44604492 12.71582031 C-3.9597168 11.25097656 -3.9597168 11.25097656 -6.26831055 8.45410156 C-6.31867106 4.5691477 -3.87251613 0.77525347 0 0 Z " fill="#36439A" transform="translate(88.268310546875,80.5458984375)"/>
<path d="M0 0 C1.3125 2.0625 1.3125 2.0625 2 4 C2.66 2.68 3.32 1.36 4 0 C5.30396552 3.93405263 4.25673088 5.88749016 2.71630859 9.66796875 C1.37600501 14.0314929 1.69087339 18.47798496 1.8125 23 C1.82603516 23.96550781 1.83957031 24.93101563 1.85351562 25.92578125 C1.88854542 28.28445425 1.93765916 30.64191771 2 33 C-0.31 33.66 -2.62 34.32 -5 35 C-9 30.25 -9 30.25 -9 28 C-4.25 26.875 -4.25 26.875 -2 28 C-4.51038703 19.43537256 -4.51038703 19.43537256 -8.8125 11.6875 C-10.72540921 8.90561679 -11.29646831 7.36761286 -10.8125 4 C-10.544375 3.01 -10.27625 2.02 -10 1 C-6.29223511 -0.80091438 -3.93496467 -1.48890555 0 0 Z " fill="#FAFAF0" transform="translate(57,19)"/>
<path d="M0 0 C10.89 0 21.78 0 33 0 C33 0.33 33 0.66 33 1 C27.39 1 21.78 1 16 1 C16.33 1.66 16.66 2.32 17 3 C17.99 3.33 18.98 3.66 20 4 C20.66 7.3 21.32 10.6 22 14 C15.4 14 8.8 14 2 14 C0 9 0 9 0 0 Z " fill="#313E98" transform="translate(18,64)"/>
<path d="M0 0 C-3.35846074 8.15107499 -12.64666821 12.77177875 -20.37109375 16.03515625 C-23.88392837 17.32441353 -27.33719781 18.23979577 -31 19 C-30.29957689 14.09703825 -27.14707603 11.98451271 -23.546875 8.89453125 C-20.50704537 6.63330829 -17.5081859 5.17727825 -13.9921875 3.80859375 C-11.81094829 3.00102158 -11.81094829 3.00102158 -9.375 1.25 C-6.17546786 -0.43396428 -3.55643071 -0.20920181 0 0 Z " fill="#D6A833" transform="translate(104,40)"/>
<path d="M0 0 C11.73272015 -0.50110292 20.1459947 6.15050371 28.48046875 13.57421875 C31 16 31 16 32 18 C22.84752921 19.05605432 15.69882125 14.90653572 8.5625 9.4453125 C5.59998512 7.07237423 2.70535516 4.66698133 0 2 C0 1.34 0 0.68 0 0 Z " fill="#D9AA3B" transform="translate(24,40)"/>
<path d="M0 0 C0.99 0 1.98 0 3 0 C3 3.3 3 6.6 3 10 C3.66 10 4.32 10 5 10 C5.33 9.01 5.66 8.02 6 7 C6.33 6.34 6.66 5.68 7 5 C9.32156597 4.59270772 11.6568787 4.25561323 14 4 C13.54763369 9.88076209 10.99585859 14.07445603 8 19 C7.64421875 19.60714844 7.2884375 20.21429688 6.921875 20.83984375 C4.81778134 24.25482116 3.76066541 25.1196673 0 27 C0.33 22.38 0.66 17.76 1 13 C0.01 12.34 -0.98 11.68 -2 11 C-2.39259107 6.76001646 -2.32490278 3.63266059 0 0 Z " fill="#D8AE4C" transform="translate(74,19)"/>
<path d="M0 0 C11.88 0 23.76 0 36 0 C36 9 36 9 34 14 C32.68 14 31.36 14 30 14 C30 13.34 30 12.68 30 12 C30.66 12 31.32 12 32 12 C31.67 10.02 31.34 8.04 31 6 C30.34 7.98 29.68 9.96 29 12 C22.84765625 12.09765625 22.84765625 12.09765625 21 12 C20.67 11.67 20.34 11.34 20 11 C20 8.03 20 5.06 20 2 C13.4 1.67 6.8 1.34 0 1 C0 0.67 0 0.34 0 0 Z " fill="#414C9E" transform="translate(75,63)"/>
<path d="M0 0 C0 8.25 0 16.5 0 25 C-2.31 25.33 -4.62 25.66 -7 26 C-7.11660824 22.60445765 -7.18738372 19.20943321 -7.25 15.8125 C-7.28351563 14.85279297 -7.31703125 13.89308594 -7.3515625 12.90429688 C-7.41326174 8.44652708 -7.43296119 5.7521313 -5.171875 1.82421875 C-3 0 -3 0 0 0 Z " fill="#3F4C9C" transform="translate(72,65)"/>
<path d="M0 0 C0.66 0 1.32 0 2 0 C2.21914063 0.85722656 2.43828125 1.71445313 2.6640625 2.59765625 C4.64861778 9.75334948 6.55373741 14.9032302 12 20 C12.78375 20.804375 13.5675 21.60875 14.375 22.4375 C14.91125 22.953125 15.4475 23.46875 16 24 C15.01 24 14.02 24 13 24 C9.56485485 25.33511714 7.41716244 27.3708434 4.875 30 C4.19179688 30.70125 3.50859375 31.4025 2.8046875 32.125 C1.91136719 33.053125 1.91136719 33.053125 1 34 C0.34 34.66 -0.32 35.32 -1 36 C-0.40246272 30.45832362 2.3536193 28.48515961 6.3828125 24.96484375 C8.2457964 23.15779009 8.2457964 23.15779009 7.8671875 20.94140625 C6.95149205 18.74618597 6.95149205 18.74618597 5 16 C2.57900645 15.5835465 2.57900645 15.5835465 -0.2265625 15.70703125 C-1.7734375 15.7215332 -1.7734375 15.7215332 -3.3515625 15.73632812 C-4.43179688 15.76146484 -5.51203125 15.78660156 -6.625 15.8125 C-7.71296875 15.82603516 -8.8009375 15.83957031 -9.921875 15.85351562 C-12.61507409 15.88895246 -15.30729374 15.93835669 -18 16 C-18.33 14.35 -18.66 12.7 -19 11 C-12.07 11.33 -5.14 11.66 2 12 C1.34 10.35 0.68 8.7 0 7 C-0.07646165 4.6679198 -0.09143299 2.33154122 0 0 Z " fill="#BEC4DA" transform="translate(38,66)"/>
<path d="M0 0 C5.18165908 2.59082954 5.18165908 2.59082954 7 5 C7.34057617 7.26831055 7.34057617 7.26831055 7.29296875 9.88671875 C7.28330078 10.82451172 7.27363281 11.76230469 7.26367188 12.72851562 C7.23853516 13.70498047 7.21339844 14.68144531 7.1875 15.6875 C7.17396484 16.67556641 7.16042969 17.66363281 7.14648438 18.68164062 C7.11112203 21.12164231 7.06177033 23.56054719 7 26 C4.69 26 2.38 26 0 26 C0 17.42 0 8.84 0 0 Z " fill="#3E4A99" transform="translate(56,64)"/>
<path d="M0 0 C10.56 0 21.12 0 32 0 C32 0.33 32 0.66 32 1 C28.04 1 24.08 1 20 1 C20.33 3.97 20.66 6.94 21 10 C23.64 10.33 26.28 10.66 29 11 C29.12375 10.030625 29.2475 9.06125 29.375 8.0625 C29.684375 6.5465625 29.684375 6.5465625 30 5 C30.66 4.67 31.32 4.34 32 4 C32 6.31 32 8.62 32 11 C31.34 11 30.68 11 30 11 C30 11.66 30 12.32 30 13 C25.38 13 20.76 13 16 13 C16 9.04 16 5.08 16 1 C13.36 1 10.72 1 8 1 C7.67 1.66 7.34 2.32 7 3 C7 2.34 7 1.68 7 1 C6.34 1 5.68 1 5 1 C4.67 1.66 4.34 2.32 4 3 C4 2.34 4 1.68 4 1 C3.01 1.495 3.01 1.495 2 2 C1.67 9.26 1.34 16.52 1 24 C0.67 24 0.34 24 0 24 C0 16.08 0 8.16 0 0 Z " fill="#2F3B95" transform="translate(75,64)"/>
<path d="M0 0 C1.65 0 3.3 0 5 0 C3.125 6.75 3.125 6.75 2 9 C2.66 9.66 3.32 10.32 4 11 C0.04 12.65 -3.92 14.3 -8 16 C-8.66 14.35 -9.32 12.7 -10 11 C-10.66 11 -11.32 11 -12 11 C-11.42647107 7.12867972 -9.51295648 4.91827204 -7 2 C-7 3.98 -7 5.96 -7 8 C-6.01 6.02 -5.02 4.04 -4 2 C-2.68 2 -1.36 2 0 2 C0 1.34 0 0.68 0 0 Z " fill="#F8F9EE" transform="translate(92,31)"/>
<path d="M0 0 C0.33 0 0.66 0 1 0 C1.33 6.93 1.66 13.86 2 21 C3.32 20.67 4.64 20.34 6 20 C6 19.34 6 18.68 6 18 C6.66 18 7.32 18 8 18 C8.28875 17.38125 8.5775 16.7625 8.875 16.125 C10 14 10 14 12 12 C12 12.66 12 13.32 12 14 C19.26 14 26.52 14 34 14 C33.67 14.99 33.34 15.98 33 17 C33 16.34 33 15.68 33 15 C29.56126184 15.05179764 26.12505092 15.14685105 22.6875 15.25 C21.71103516 15.26417969 20.73457031 15.27835938 19.72851562 15.29296875 C18.79072266 15.32519531 17.85292969 15.35742188 16.88671875 15.390625 C15.59060669 15.4220459 15.59060669 15.4220459 14.26831055 15.45410156 C11.84002099 15.81983407 11.84002099 15.81983407 10.19287109 17.91601562 C8.83267157 19.88237399 8.83267157 19.88237399 9.02734375 21.953125 C10.38067946 24.80110859 12.29180558 26.57525042 14.5625 28.75 C15.38878906 29.54921875 16.21507813 30.3484375 17.06640625 31.171875 C17.70449219 31.77515625 18.34257813 32.3784375 19 33 C18.34 33.99 17.68 34.98 17 36 C16.54109375 35.46890625 16.0821875 34.9378125 15.609375 34.390625 C14.3459431 32.93608575 13.07616458 31.48704006 11.80078125 30.04296875 C10.49680291 28.56361805 9.21130695 27.06790821 7.9375 25.5625 C5.62004513 23.43178772 5.62004513 23.43178772 0 23 C0 15.41 0 7.82 0 0 Z " fill="#BBC3D9" transform="translate(74,66)"/>
<path d="M0 0 C6.05106123 2.42042449 9.36549698 8.63955323 12.1171875 14.296875 C13.47204874 17.72919015 14 20.27983242 14 24 C13.34 24 12.68 24 12 24 C6.18081823 17.26133712 0 9.18765983 0 0 Z " fill="#D6A739" transform="translate(41,23)"/>
<path d="M0 0 C1.2065625 0.0309375 1.2065625 0.0309375 2.4375 0.0625 C2.7675 1.7125 3.0975 3.3625 3.4375 5.0625 C-1.4375 4.1875 -1.4375 4.1875 -2.5625 3.0625 C-6.62229452 7.47532013 -6.5625 12.28982735 -6.5625 18.0625 C-8.2125 18.0625 -9.8625 18.0625 -11.5625 18.0625 C-11.5625 12.7825 -11.5625 7.5025 -11.5625 2.0625 C-9.51171875 1.83463542 -7.4609375 1.60677083 -5.41015625 1.37890625 C-2.80458624 0.93270927 -2.89290947 0.07055877 0 0 Z " fill="#323F98" transform="translate(77.5625,90.9375)"/>
<path d="M0 0 C0.20086443 3.71599191 0.1519437 4.77208445 -2 8 C0.64 8 3.28 8 6 8 C6 9.32 6 10.64 6 12 C2.98509443 13.00496852 0.95818308 13.10335303 -2.1875 13.0625 C-3.08855469 13.05347656 -3.98960938 13.04445313 -4.91796875 13.03515625 C-5.60503906 13.02355469 -6.29210937 13.01195312 -7 13 C-7 12.01 -7 11.02 -7 10 C-8.65 10 -10.3 10 -12 10 C-2.28571429 0 -2.28571429 0 0 0 Z " fill="#F2EBCC" transform="translate(104,42)"/>
<path d="M0 0 C5.94 3.465 5.94 3.465 12 7 C7.95744681 9.0212766 7.95744681 9.0212766 4 8 C3.01 8.66 2.02 9.32 1 10 C1 9.34 1 8.68 1 8 C-0.5778125 8.0928125 -0.5778125 8.0928125 -2.1875 8.1875 C-6.16108064 7.992078 -7.91244563 7.4326186 -11 5 C-11 4.34 -11 3.68 -11 3 C-5.555 2.505 -5.555 2.505 0 2 C0 1.34 0 0.68 0 0 Z " fill="#F9F6EB" transform="translate(30,47)"/>
<path d="M0 0 C2.4375 0.1875 2.4375 0.1875 5 1 C6.3125 3.0625 6.3125 3.0625 7 5 C7.66 3.68 8.32 2.36 9 1 C10.32432194 5.03646072 9.57072473 7.44333428 8.03515625 11.29296875 C7 13 7 13 4.3125 14 C3.549375 14 2.78625 14 2 14 C-0.08557757 10.87163364 -0.36393593 9.51376966 -0.6875 5.875 C-0.77386719 4.98554688 -0.86023437 4.09609375 -0.94921875 3.1796875 C-0.96597656 2.46039062 -0.98273437 1.74109375 -1 1 C-0.67 0.67 -0.34 0.34 0 0 Z " fill="#F6F0D3" transform="translate(52,18)"/>
<path d="M0 0 C-1.29870863 2.89711926 -2.51264569 5.00123314 -5 7 C-7.48046875 7.51171875 -7.48046875 7.51171875 -10.1875 7.6875 C-11.53908203 7.78611328 -11.53908203 7.78611328 -12.91796875 7.88671875 C-13.94857422 7.94279297 -13.94857422 7.94279297 -15 8 C-15.33 8.99 -15.66 9.98 -16 11 C-16.66 11 -17.32 11 -18 11 C-18 10.34 -18 9.68 -18 9 C-19.98 9.66 -21.96 10.32 -24 11 C-18.31880625 4.10140758 -9.07793432 -1.23790013 0 0 Z " fill="#DAA231" transform="translate(104,40)"/>
<path d="M0 0 C12.21 0 24.42 0 37 0 C37 8.58 37 17.16 37 26 C30.25 21.5 30.25 21.5 28 18 C29.98 18 31.96 18 34 18 C34.495 19.98 34.495 19.98 35 22 C35.33 15.07 35.66 8.14 36 1 C24.45 1 12.9 1 1 1 C0.67 2.32 0.34 3.64 0 5 C0 3.35 0 1.7 0 0 Z " fill="#636BA1" transform="translate(17,63)"/>
<path d="M0 0 C0.99 0 1.98 0 3 0 C3 3.3 3 6.6 3 10 C3.66 10 4.32 10 5 10 C5.33 9.01 5.66 8.02 6 7 C6.33 6.34 6.66 5.68 7 5 C8.32 5.33 9.64 5.66 11 6 C10.38511719 6.67095703 10.38511719 6.67095703 9.7578125 7.35546875 C6.74359926 10.73744485 4.33949455 13.579668 3 18 C2.67 18 2.34 18 2 18 C1.896875 17.21625 1.79375 16.4325 1.6875 15.625 C1.22404978 12.66954819 1.22404978 12.66954819 -2 11 C-2.39259107 6.76001646 -2.32490278 3.63266059 0 0 Z " fill="#F0E2B8" transform="translate(74,19)"/>
<path d="M0 0 C0.66 0 1.32 0 2 0 C2 4.95 2 9.9 2 15 C0.02 15 -1.96 15 -4 15 C-5.28317892 11.15046324 -5.06643637 8.05261865 -5 4 C-3.02 4 -1.04 4 1 4 C0.67 2.68 0.34 1.36 0 0 Z " fill="#323E95" transform="translate(61,94)"/>
<path d="M0 0 C3.33333333 3.33333333 6.66666667 6.66666667 10 10 C9.01 10 8.02 10 7 10 C3.56485485 11.33511714 1.41716244 13.3708434 -1.125 16 C-1.80820312 16.70125 -2.49140625 17.4025 -3.1953125 18.125 C-3.79085937 18.74375 -4.38640625 19.3625 -5 20 C-5.66 20.66 -6.32 21.32 -7 22 C-6.40246272 16.45832362 -3.6463807 14.48515961 0.3828125 10.96484375 C1.18332031 9.99224609 1.18332031 9.99224609 2 9 C1.87054397 6.90404688 1.87054397 6.90404688 1 5 C0.65939189 3.33480481 0.32441604 1.66842534 0 0 Z " fill="#CED5E7" transform="translate(44,80)"/>
<path d="M0 0 C0.33 0 0.66 0 1 0 C1.33 3.63 1.66 7.26 2 11 C2.99 11 3.98 11 5 11 C6.125 18.75 6.125 18.75 5 21 C4.34 21 3.68 21 3 21 C2.67 21.66 2.34 22.32 2 23 C-0.45153075 18.26101734 -0.23154206 13.87937667 -0.125 8.6875 C-0.11597656 7.85154297 -0.10695312 7.01558594 -0.09765625 6.15429688 C-0.07420989 4.10274031 -0.03834266 2.05133223 0 0 Z " fill="#DBAB45" transform="translate(58,31)"/>
<path d="M0 0 C1.98 0.495 1.98 0.495 4 1 C3.34 1 2.68 1 2 1 C2.33 9.91 2.66 18.82 3 28 C1.68 27.67 0.36 27.34 -1 27 C-0.67 18.09 -0.34 9.18 0 0 Z " fill="#EAEEF8" transform="translate(54,63)"/>
<path d="M0 0 C0.33 0.66 0.66 1.32 1 2 C1.66 2 2.32 2 3 2 C2.67 3.32 2.34 4.64 2 6 C1.01 5.34 0.02 4.68 -1 4 C-1 4.66 -1 5.32 -1 6 C-0.34 6.33 0.32 6.66 1 7 C0.49396008 9.16874252 0.00016187 10.99967627 -1 13 C-4.25543229 12.65120368 -5.01873107 11.97866739 -7.25 9.4375 C-7.8275 8.633125 -8.405 7.82875 -9 7 C-7.68 7 -6.36 7 -5 7 C-4.67 6.34 -4.34 5.68 -4 5 C-3.34 5 -2.68 5 -2 5 C-2 4.34 -2 3.68 -2 3 C-1.34 3 -0.68 3 0 3 C0 2.01 0 1.02 0 0 Z " fill="#ECEDF1" transform="translate(67,57)"/>
<path d="M0 0 C3.18005028 3.88672813 6.10554447 7.89952133 9 12 C7.35 12.33 5.7 12.66 4 13 C2.9375 10.625 2.9375 10.625 2 8 C2.33 7.34 2.66 6.68 3 6 C2.34 6 1.68 6 1 6 C0.67 4.02 0.34 2.04 0 0 Z M-1 6 C-0.34 6 0.32 6 1 6 C1 6.99 1 7.98 1 9 C0.34 9 -0.32 9 -1 9 C-1 8.01 -1 7.02 -1 6 Z M0 13 C1.32 13 2.64 13 4 13 C5.75 15.5 5.75 15.5 7 18 C4.11562221 16.70700306 2.12780579 15.34058637 0 13 Z " fill="#F5EDD1" transform="translate(44,34)"/>
<path d="M0 0 C3.582906 -0.14533755 7.16505417 -0.23407931 10.75 -0.3125 C11.76578125 -0.35439453 12.7815625 -0.39628906 13.828125 -0.43945312 C21.36001686 -0.56333293 21.36001686 -0.56333293 24.70703125 2.3828125 C26 5 26 5 25.9375 7.1875 C25 9 25 9 22 11 C21 4.375 21 4.375 21 1 C10.605 1.495 10.605 1.495 0 2 C0 1.34 0 0.68 0 0 Z " fill="#485098" transform="translate(21,81)"/>
<path d="M0 0 C0.33 2.64 0.66 5.28 1 8 C6.28 8 11.56 8 17 8 C17.33 7.34 17.66 6.68 18 6 C18 6.99 18 7.98 18 9 C11.4 9 4.8 9 -2 9 C-4 4 -4 4 -4 1 C-1 0 -1 0 0 0 Z " fill="#3B4795" transform="translate(22,69)"/>
<path d="M0 0 C0.75 1.625 0.75 1.625 1 4 C-1.08139861 7.85444186 -2.79030081 10.49653601 -7 12 C-6.50958904 5.62465753 -6.50958904 5.62465753 -4.0625 2.625 C-2 1 -2 1 0 0 Z " fill="#D9AC46" transform="translate(81,34)"/>
<path d="M0 0 C0.66 0 1.32 0 2 0 C2.02712066 1.43739513 2.04645067 2.87493863 2.0625 4.3125 C2.07410156 5.11300781 2.08570312 5.91351563 2.09765625 6.73828125 C2 9 2 9 1 12 C7.6 12 14.2 12 21 12 C21 12.33 21 12.66 21 13 C17.54168414 13.02894547 14.08339928 13.04678 10.625 13.0625 C9.14773437 13.07506836 9.14773437 13.07506836 7.640625 13.08789062 C6.22910156 13.09272461 6.22910156 13.09272461 4.7890625 13.09765625 C3.91975098 13.10289307 3.05043945 13.10812988 2.15478516 13.11352539 C0 13 0 13 -2 12 C-1.34 8.04 -0.68 4.08 0 0 Z " fill="#BBC1D8" transform="translate(88,66)"/>
<path d="M0 0 C2.125 0.9375 2.125 0.9375 4 2 C3.6875 4.375 3.6875 4.375 3 7 C0 9 0 9 -4 9 C-4 6 -4 6 -2 4 C-2 3.01 -2 2.02 -2 1 C-1.34 0.67 -0.68 0.34 0 0 Z " fill="#364397" transform="translate(84,95)"/>
<path d="M0 0 C0.66 0.33 1.32 0.66 2 1 C1.01 2.485 1.01 2.485 0 4 C2.46800047 2.84826645 4.04783565 1.95216435 6 0 C6 0.66 6 1.32 6 2 C7.32 2.33 8.64 2.66 10 3 C7.8765984 3.83739781 5.7512272 4.66980283 3.625 5.5 C2.44164063 5.9640625 1.25828125 6.428125 0.0390625 6.90625 C-3 8 -3 8 -5 8 C-4.45773019 4.20411134 -2.79872437 2.52788007 0 0 Z " fill="#D9B456" transform="translate(78,51)"/>
<path d="M0 0 C2 4 2 4 3 7 C3.99 7 4.98 7 6 7 C5.34 9.31 4.68 11.62 4 14 C5.32 13.34 6.64 12.68 8 12 C7.67 12.99 7.34 13.98 7 15 C5.68 15 4.36 15 3 15 C2.67 14.34 2.34 13.68 2 13 C1.01 13.495 1.01 13.495 0 14 C0 9.38 0 4.76 0 0 Z " fill="#F4E9C6" transform="translate(70,32)"/>
<path d="M0 0 C4.87664009 -0.34833144 7.77050005 0.58314288 12 3 C11.67 3.66 11.34 4.32 11 5 C9.68 4.67 8.36 4.34 7 4 C7 4.66 7 5.32 7 6 C7.66 6.33 8.32 6.66 9 7 C4.68381834 7 3.07210341 4.86729652 0 2 C0 1.34 0 0.68 0 0 Z " fill="#D7AF4C" transform="translate(24,40)"/>
<path d="M0 0 C3 1 3 1 4 3 C4.06950541 4.54023996 4.08452357 6.08334988 4.0625 7.625 C4.05347656 8.44226562 4.04445313 9.25953125 4.03515625 10.1015625 C4.02355469 10.72804688 4.01195312 11.35453125 4 12 C3.34 12 2.68 12 2 12 C-0.13503265 8.17473317 -1.50555836 5.42363568 -1 1 C-0.67 0.67 -0.34 0.34 0 0 Z " fill="#DBB863" transform="translate(52,18)"/>
<path d="M0 0 C2.3125 -0.3125 2.3125 -0.3125 5 0 C7.24243223 2.86103423 8 4.34076304 8 8 C4.21479387 7.45925627 2.40822445 5.92427254 0 3 C0 2.01 0 1.02 0 0 Z " fill="#D9BB6B" transform="translate(32,31)"/>
<path d="M0 0 C0.33 0 0.66 0 1 0 C1.02894547 3.45831586 1.04678 6.91660072 1.0625 10.375 C1.07087891 11.35984375 1.07925781 12.3446875 1.08789062 13.359375 C1.09111328 14.30039063 1.09433594 15.24140625 1.09765625 16.2109375 C1.10289307 17.08024902 1.10812988 17.94956055 1.11352539 18.84521484 C1 21 1 21 0 23 C-2.31 22.67 -4.62 22.34 -7 22 C-6.67 21.34 -6.34 20.68 -6 20 C-4.02 20 -2.04 20 0 20 C0 13.4 0 6.8 0 0 Z " fill="#BCC3DF" transform="translate(63,70)"/>
<path d="M0 0 C2.625 -0.1875 2.625 -0.1875 5 0 C3.83242263 3.32310483 2.85051143 5.83361132 0 8 C-0.99 8 -1.98 8 -3 8 C-2.45276317 4.62537285 -1.9451 2.91765 0 0 Z " fill="#D7B151" transform="translate(92,31)"/>
<path d="M0 0 C3.11223313 4.14964417 3.52003578 6.00837213 4 11 C2.35 11.66 0.7 12.32 -1 13 C-1.33 12.01 -1.66 11.02 -2 10 C-1.34 10 -0.68 10 0 10 C0 6.7 0 3.4 0 0 Z " fill="#313D97" transform="translate(79,71)"/>
<path d="M0 0 C1.31223496 3.93670488 0.24296256 6.12488144 -1 10 C-1.66 10 -2.32 10 -3 10 C-3 10.66 -3 11.32 -3 12 C-3.66 12 -4.32 12 -5 12 C-6.76462683 8.91190305 -7 7.76687864 -7 4 C-6.34 4 -5.68 4 -5 4 C-5 5.65 -5 7.3 -5 9 C-4.34 9 -3.68 9 -3 9 C-3.33 8.01 -3.66 7.02 -4 6 C-3.67 5.34 -3.34 4.68 -3 4 C-2.34 4 -1.68 4 -1 4 C-0.67 2.68 -0.34 1.36 0 0 Z " fill="#D4A83C" transform="translate(68,50)"/>
<path d="M0 0 C1.98 0 3.96 0 6 0 C6.33 1.98 6.66 3.96 7 6 C5.68 5.01 4.36 4.02 3 3 C3.33 4.32 3.66 5.64 4 7 C2.35 7 0.7 7 -1 7 C-0.34 6.34 0.32 5.68 1 5 C0.34 4.01 -0.32 3.02 -1 2 C-0.67 1.34 -0.34 0.68 0 0 Z " fill="#F7F0DD" transform="translate(54,52)"/>
<path d="M0 0 C0.515625 0.309375 1.03125 0.61875 1.5625 0.9375 C4.66665423 2.29059287 7.65115007 2.61359424 11 3 C11 3.33 11 3.66 11 4 C8.03 4 5.06 4 2 4 C2.33 5.98 2.66 7.96 3 10 C2.34 10 1.68 10 1 10 C0.896875 9.360625 0.79375 8.72125 0.6875 8.0625 C0.460625 7.381875 0.23375 6.70125 0 6 C-0.99 5.67 -1.98 5.34 -3 5 C-1.68 4.67 -0.36 4.34 1 4 C0.67 2.68 0.34 1.36 0 0 Z " fill="#F7F4DF" transform="translate(20,52)"/>
<path d="M0 0 C2.64712934 1.46048515 4.07021721 3.57324898 5.8125 6 C4.4925 6.33 3.1725 6.66 1.8125 7 C1.4825 5.35 1.1525 3.7 0.8125 2 C-0.095 2.350625 -1.0025 2.70125 -1.9375 3.0625 C-5.06508436 3.96468779 -6.23958081 4.13381507 -9.1875 3 C-2.9475 0 -2.9475 0 0 0 Z " fill="#565EA1" transform="translate(79.1875,89)"/>
<path d="M0 0 C2.64 0 5.28 0 8 0 C8 0.66 8 1.32 8 2 C4.3558226 4.4294516 2.28758728 4.16179575 -2 4 C-1.34 2.68 -0.68 1.36 0 0 Z " fill="#D6AC47" transform="translate(100,51)"/>
<path d="M0 0 C1.258125 -0.04125 2.51625 -0.0825 3.8125 -0.125 C4.52019531 -0.14820313 5.22789063 -0.17140625 5.95703125 -0.1953125 C8 0 8 0 11 2 C11 2.66 11 3.32 11 4 C4.6 4.49230769 4.6 4.49230769 1.5625 2 C1.046875 1.34 0.53125 0.68 0 0 Z " fill="#D7AC48" transform="translate(20,51)"/>
<path d="M0 0 C0.66 0.33 1.32 0.66 2 1 C-1 3 -1 3 -4 3 C-4 4.65 -4 6.3 -4 8 C-4.66 8 -5.32 8 -6 8 C-6 7.34 -6 6.68 -6 6 C-7.98 6.66 -9.96 7.32 -12 8 C-8.2646504 3.81188075 -5.22578394 1.77479455 0 0 Z " fill="#DBB453" transform="translate(92,43)"/>
<path d="M0 0 C1.65 1.65 3.3 3.3 5 5 C0.07872966 5.16682272 -3.50343896 5.24828052 -8 3 C-5.10765685 2.17361624 -3.11257569 2 0 2 C0 1.34 0 0.68 0 0 Z " fill="#DCBD64" transform="translate(51,53)"/>
<path d="M0 0 C0 0.66 0 1.32 0 2 C0.66 2 1.32 2 2 2 C2 2.66 2 3.32 2 4 C0.35 4 -1.3 4 -3 4 C-3 4.66 -3 5.32 -3 6 C-4.65 6 -6.3 6 -8 6 C-6.24081631 1.94034532 -4.71412298 0 0 0 Z " fill="#DBA024" transform="translate(86,49)"/>
<path d="M0 0 C2.31 0.33 4.62 0.66 7 1 C7 1.99 7 2.98 7 4 C7.99 3.67 8.98 3.34 10 3 C10 3.66 10 4.32 10 5 C10.66 5 11.32 5 12 5 C12.33 5.99 12.66 6.98 13 8 C8.27626146 6.37621488 4.05818166 3.89006982 0 1 C0 0.67 0 0.34 0 0 Z " fill="#D9DCE9" transform="translate(25,114)"/>
<path d="M0 0 C0.99 0 1.98 0 3 0 C3 1.98 3 3.96 3 6 C2.34 6 1.68 6 1 6 C0.67 6.66 0.34 7.32 0 8 C-0.66 7.67 -1.32 7.34 -2 7 C-1.125 1.125 -1.125 1.125 0 0 Z " fill="#303E96" transform="translate(85,66)"/>
<path d="M0 0 C1.134375 0.020625 2.26875 0.04125 3.4375 0.0625 C2.04417426 3.42970387 0.4585714 5.0484524 -2.5625 7.0625 C-2.5625 5.7425 -2.5625 4.4225 -2.5625 3.0625 C-3.2225 2.4025 -3.8825 1.7425 -4.5625 1.0625 C-3.5625 0.0625 -3.5625 0.0625 0 0 Z " fill="#DBB559" transform="translate(100.5625,39.9375)"/>
<path d="M0 0 C0 3 0 3 -1 5 C-0.34 5.66 0.32 6.32 1 7 C-0.98 7.66 -2.96 8.32 -5 9 C-5 8.01 -5 7.02 -5 6 C-5.66 5.67 -6.32 5.34 -7 5 C-6.67 4.01 -6.34 3.02 -6 2 C-6 2.66 -6 3.32 -6 4 C-2.81765895 2.24545615 -2.81765895 2.24545615 0 0 Z " fill="#F6EBD1" transform="translate(95,35)"/>
<path d="M0 0 C2.64 0 5.28 0 8 0 C8 0.99 8 1.98 8 3 C8.66 3.33 9.32 3.66 10 4 C8.35 4.33 6.7 4.66 5 5 C5 4.34 5 3.68 5 3 C4.360625 2.87625 3.72125 2.7525 3.0625 2.625 C2.381875 2.41875 1.70125 2.2125 1 2 C0.67 1.34 0.34 0.68 0 0 Z " fill="#DCA122" transform="translate(35,48)"/>
<path d="M0 0 C1.32 0.33 2.64 0.66 4 1 C2.35 2.65 0.7 4.3 -1 6 C-4.875 4.25 -4.875 4.25 -6 2 C-4.0625 1.4375 -4.0625 1.4375 -2 1 C-1.67 1.33 -1.34 1.66 -1 2 C-0.67 1.34 -0.34 0.68 0 0 Z " fill="#4F569E" transform="translate(37,94)"/>
<path d="M0 0 C0.99 0 1.98 0 3 0 C3.25 2.75 3.25 2.75 3 6 C1 8.375 1 8.375 -1 10 C-0.67 6.7 -0.34 3.4 0 0 Z " fill="#D3A53B" transform="translate(74,19)"/>
<path d="M0 0 C0.886875 0.309375 1.77375 0.61875 2.6875 0.9375 C5.46709155 1.8290671 8.13136375 2.49377007 11 3 C9.35 4.32 7.7 5.64 6 7 C4.02 4.69 2.04 2.38 0 0 Z " fill="#454E98" transform="translate(87,93)"/>
<path d="M0 0 C1.65 0.99 3.3 1.98 5 3 C4.01 3.495 4.01 3.495 3 4 C2.01 3.34 1.02 2.68 0 2 C0 1.34 0 0.68 0 0 Z M-11 3 C-7.04 3 -3.08 3 1 3 C1 3.99 1 4.98 1 6 C0.01 5.67 -0.98 5.34 -2 5 C-3.56118428 4.93259135 -5.1250252 4.91485544 -6.6875 4.9375 C-7.49574219 4.94652344 -8.30398437 4.95554688 -9.13671875 4.96484375 C-9.75160156 4.97644531 -10.36648437 4.98804688 -11 5 C-11 4.34 -11 3.68 -11 3 Z " fill="#EEDEB2" transform="translate(30,47)"/>
<path d="M0 0 C3.45854519 3.45854519 4 7.21904213 4 12 C3.34 12 2.68 12 2 12 C0.375 9.5 0.375 9.5 -1 7 C-0.34 7 0.32 7 1 7 C0.67 4.69 0.34 2.38 0 0 Z " fill="#D5B258" transform="translate(51,35)"/>
<path d="M0 0 C0.8971875 0.5259375 0.8971875 0.5259375 1.8125 1.0625 C4.10813214 2.33304698 4.10813214 2.33304698 7 1 C6.67 3.31 6.34 5.62 6 8 C1.125 3.375 1.125 3.375 0 0 Z " fill="#3F4994" transform="translate(22,84)"/>
<path d="M0 0 C0.66 0 1.32 0 2 0 C2.66 3.63 3.32 7.26 4 11 C3.34 11 2.68 11 2 11 C-0.32590854 7.36576791 -0.16265833 4.22911669 0 0 Z " fill="#D4DAEC" transform="translate(38,66)"/>
<path d="M0 0 C0.33 0 0.66 0 1 0 C1.33 5.94 1.66 11.88 2 18 C1.01 18.33 0.02 18.66 -1 19 C-0.67 12.73 -0.34 6.46 0 0 Z " fill="#FDFAE3" transform="translate(57,34)"/>
<path d="M0 0 C1.485 0.99 1.485 0.99 3 2 C3.6875 5.625 3.6875 5.625 4 9 C3.01 9 2.02 9 1 9 C-0.4783226 6.04335481 -0.06032783 3.25770263 0 0 Z " fill="#D8A326" transform="translate(48,33)"/>
<path d="M0 0 C0.66 0 1.32 0 2 0 C2.66 2.64 3.32 5.28 4 8 C3.01 8 2.02 8 1 8 C-1 6 -1 6 -1.1875 3.4375 C-1 1 -1 1 0 0 Z " fill="#F8FBF6" transform="translate(50,24)"/>
<path d="M0 0 C-1.32 0.33 -2.64 0.66 -4 1 C-4 1.66 -4 2.32 -4 3 C-6.31 4.32 -8.62 5.64 -11 7 C-11.66 6.34 -12.32 5.68 -13 5 C-11.40377344 3.96679519 -9.79770894 2.94877571 -8.1875 1.9375 C-7.29417969 1.36902344 -6.40085937 0.80054688 -5.48046875 0.21484375 C-3 -1 -3 -1 0 0 Z " fill="#E9EDF1" transform="translate(39,6)"/>
<path d="M0 0 C-0.33 1.98 -0.66 3.96 -1 6 C-1.33 5.34 -1.66 4.68 -2 4 C-2.99 4 -3.98 4 -5 4 C-4.67 5.32 -4.34 6.64 -4 8 C-4.66 8 -5.32 8 -6 8 C-6.36458333 3.50347222 -6.36458333 3.50347222 -4.6875 1.1875 C-3 0 -3 0 0 0 Z " fill="#48539C" transform="translate(72,65)"/>
<path d="M0 0 C3.7952131 1.49097658 5.61042731 3.75700849 8 7 C7.34 7.66 6.68 8.32 6 9 C4.99406757 7.8803014 3.9954151 6.7540588 3 5.625 C2.443125 4.99851562 1.88625 4.37203125 1.3125 3.7265625 C0 2 0 2 0 0 Z " fill="#CED8E8" transform="translate(85,93)"/>
<path d="M0 0 C1.98 0 3.96 0 6 0 C6.33 1.98 6.66 3.96 7 6 C3.63279613 4.60667426 2.0140476 3.0210714 0 0 Z " fill="#444F9A" transform="translate(45,81)"/>
<path d="M0 0 C0.66 0.33 1.32 0.66 2 1 C2.625 4.0625 2.625 4.0625 3 7 C2.01 7.495 2.01 7.495 1 8 C0.34 5.69 -0.32 3.38 -1 1 C-0.67 0.67 -0.34 0.34 0 0 Z M3 2 C3.99 2.495 3.99 2.495 5 3 C4.67 3.99 4.34 4.98 4 6 C3.67 4.68 3.34 3.36 3 2 Z " fill="#3D4595" transform="translate(42,71)"/>
<path d="M0 0 C1.10844919 3.32534757 0.84454356 5.62182575 0 9 C-1.32 9 -2.64 9 -4 9 C-3.35455571 5.51460083 -1.89865603 2.97180943 0 0 Z " fill="#F3E9C7" transform="translate(84,33)"/>
<path d="M0 0 C0.99 0.66 1.98 1.32 3 2 C3 2.99 3 3.98 3 5 C1.35 5.66 -0.3 6.32 -2 7 C-1.42415568 4.61435923 -0.77772405 2.33317216 0 0 Z " fill="#5860A2" transform="translate(88,98)"/>
<path d="M0 0 C2.62187494 1.04874998 3.79371361 1.64931313 5.25 4.125 C5.4975 4.74375 5.745 5.3625 6 6 C5.01 5.67 4.02 5.34 3 5 C2.01 5.495 2.01 5.495 1 6 C0.67 4.02 0.34 2.04 0 0 Z " fill="#DCBC64" transform="translate(41,23)"/>
<path d="M0 0 C0.33 0.66 0.66 1.32 1 2 C1.66 2 2.32 2 3 2 C2.67 3.32 2.34 4.64 2 6 C1.01 5.34 0.02 4.68 -1 4 C-1.33 4.99 -1.66 5.98 -2 7 C-2.66 7 -3.32 7 -4 7 C-4 6.34 -4 5.68 -4 5 C-3.34 5 -2.68 5 -2 5 C-2 4.34 -2 3.68 -2 3 C-1.34 3 -0.68 3 0 3 C0 2.01 0 1.02 0 0 Z " fill="#F2ECCD" transform="translate(67,57)"/>
<path d="M0 0 C0.99 0.33 1.98 0.66 3 1 C2.34 1 1.68 1 1 1 C1.474375 1.78375 1.94875 2.5675 2.4375 3.375 C3.33898023 4.88948678 4.21179485 6.4235897 5 8 C2.03 7.505 2.03 7.505 -1 7 C-0.67 4.69 -0.34 2.38 0 0 Z " fill="#F0E8C6" transform="translate(31,30)"/>
<path d="M0 0 C1.32 0.33 2.64 0.66 4 1 C4.33 2.32 4.66 3.64 5 5 C3.68 4.67 2.36 4.34 1 4 C0.67 2.68 0.34 1.36 0 0 Z " fill="#D3A73B" transform="translate(32,31)"/>
<path d="M0 0 C3 2 3 2 3.6875 4.625 C3.790625 5.40875 3.89375 6.1925 4 7 C2.68 6.67 1.36 6.34 0 6 C0.33 4.68 0.66 3.36 1 2 C0.01 2.33 -0.98 2.66 -2 3 C-2 2.34 -2 1.68 -2 1 C-1.34 0.67 -0.68 0.34 0 0 Z " fill="#DAB45A" transform="translate(64,17)"/>
<path d="M0 0 C0.6875 1.8125 0.6875 1.8125 1 4 C-0.4375 5.75 -0.4375 5.75 -2 7 C-2 6.01 -2 5.02 -2 4 C-2.66 4 -3.32 4 -4 4 C-4 3.34 -4 2.68 -4 2 C-2.68 1.34 -1.36 0.68 0 0 Z " fill="#D8A32A" transform="translate(81,34)"/>
<path d="M0 0 C1.5 1.1875 1.5 1.1875 3 3 C3.1875 5.6875 3.1875 5.6875 3 8 C2.34 8 1.68 8 1 8 C-0.35439668 5.29120665 -0.06501451 2.99066732 0 0 Z " fill="#D6A73E" transform="translate(53,22)"/>
<path d="M0 0 C1.32 1.32 2.64 2.64 4 4 C3.01 5.485 3.01 5.485 2 7 C1.34 6.67 0.68 6.34 0 6 C0 4.02 0 2.04 0 0 Z " fill="#3D4698" transform="translate(59,66)"/>
<path d="M0 0 C0.66 0.33 1.32 0.66 2 1 C1.67 2.98 1.34 4.96 1 7 C0.34 6.67 -0.32 6.34 -1 6 C-0.67 5.34 -0.34 4.68 0 4 C-0.99 4 -1.98 4 -3 4 C-3 3.34 -3 2.68 -3 2 C-2.01 2 -1.02 2 0 2 C0 1.34 0 0.68 0 0 Z " fill="#F1E8C8" transform="translate(97,27)"/>
<path d="M0 0 C0.33 0 0.66 0 1 0 C1.12375 0.94875 1.2475 1.8975 1.375 2.875 C1.71687177 6.08667191 1.71687177 6.08667191 4 8 C3.01 8 2.02 8 1 8 C0.01 6.02 -0.98 4.04 -2 2 C-1.34 1.34 -0.68 0.68 0 0 Z " fill="#F8F1DC" transform="translate(48,24)"/>
<path d="M0 0 C2.125 0.375 2.125 0.375 4 1 C2.35830472 3.02054804 0.69088222 5.02043058 -1 7 C-1.33 7 -1.66 7 -2 7 C-2.125 4.625 -2.125 4.625 -2 2 C-1.34 1.34 -0.68 0.68 0 0 Z " fill="#FBF8E5" transform="translate(81,24)"/>
</svg>
